<svg xmlns="http://www.w3.org/2000/svg" version="1.1" xmlns:xlink="http://www.w3.org/1999/xlink" xmlns:svgjs="http://svgjs.dev/svgjs" width="1000" height="1000"><style>
    #light-icon {
      display: inline;
    }
    #dark-icon {
      display: none;
    }

    @media (prefers-color-scheme: dark) {
      #light-icon {
        display: none;
      }
      #dark-icon {
        display: inline;
      }
    }
  </style><g id="light-icon"><svg xmlns="http://www.w3.org/2000/svg" version="1.1" xmlns:xlink="http://www.w3.org/1999/xlink" xmlns:svgjs="http://svgjs.dev/svgjs" width="1000" height="1000"><g clip-path="url(#SvgjsClipPath1057)"><rect width="1000" height="1000" fill="#ffffff"></rect><g transform="matrix(1.8,0,0,1.8,50,50)"><svg xmlns="http://www.w3.org/2000/svg" version="1.1" xmlns:xlink="http://www.w3.org/1999/xlink" xmlns:svgjs="http://svgjs.dev/svgjs" width="500" height="500"><svg version="1.1" id="Layer_1" xmlns="http://www.w3.org/2000/svg" xmlns:xlink="http://www.w3.org/1999/xlink" x="0px" y="0px" viewBox="0 0 500 500" enable-background="new 0 0 500 500" xml:space="preserve">
<path d="M406.812,379.988c3.895,10.653,1.352,17.841-6.421,20.605c-6.276,2.232-10.537-1.113-15.29-13.376
	c-9.892,5.996-19.986,11.148-29.009,17.762c-28.057,20.568-58.963,33.435-93.593,37.669c-37.263,4.555-69.923-6.315-99.442-28.41
	c-5.885-4.405-11.854-8.801-17.16-13.857c-26.272-25.037-57.475-37.68-93.702-38.279c-3.491-0.058-7.177-0.496-10.378-1.758
	c-2.229-0.878-4.959-3.281-5.288-5.349c-0.293-1.842,1.955-4.771,3.856-6.168c12.509-9.195,27.409-9.934,42.046-10.864
	c27.365-1.739,53.67,4.433,79.46,12.542c35.056,11.022,70.434,19.335,107.527,16.472c37.448-2.89,73.187-11.661,104.511-33.431
	c12.689-8.819,23.966-19.681,36.731-28.373c7.275-4.954,15.993-8.302,24.524-10.787c15.994-4.659,26.655,2.373,29.689,18.811
	c3.782,20.495-4.27,36.466-20.624,48.092c-7.899,5.615-17.134,9.374-25.856,13.794C414.808,376.899,410.981,378.241,406.812,379.988
	z M385.49,370.506c0.461,0.755,0.921,1.509,1.382,2.264c15.755-7.169,31.78-13.81,47.168-21.697
	c9.76-5.002,16.147-13.736,18.683-24.693c2.893-12.501-5.3-20.302-17.862-17.066c-11.837,3.05-19.906,11.138-26.03,21.057
	C400.702,343.534,393.239,357.108,385.49,370.506z"></path>
<path d="M175.313,171.308c4.209,2.474,7.758,4.561,11.308,6.648c0.687-0.599,1.374-1.198,2.061-1.797
	c-0.941-4.1-1.706-8.25-2.872-12.285c-1.192-4.125-2.777-8.137-4.189-12.198c0.613-0.315,1.226-0.631,1.839-0.946
	c8.019,14.873,16.039,29.747,25.439,47.181c6.277-17.419,18.106-18.696,31.161-17.119c0.326,0.799,0.651,1.598,0.976,2.397
	c-3.579,1.246-7.071,3.026-10.754,3.623c-6.828,1.106-9.168,4.75-8.321,11.363c0.482,3.763,0.267,7.616,0.359,11.428
	c0.104,4.333-0.623,9.265,5.458,10.212c5.597,0.871,11.139,0.654,14.218-5.232c1.723-3.294,2.877-6.886,4.228-10.198
	c2.706,3.054,4.839,7.258,8.176,8.728c3.431,1.511,8.523,1.428,11.913-0.108c1.581-0.717,1.729-6.694,1.03-9.967
	c-2.423-11.339-8.152-19.943-24.067-19.673c13.674-7.805,22.301-5.934,28.464,4.83c3.175-9.897,6.041-18.828,8.906-27.758
	c0.345-0.025,0.691-0.051,1.036-0.076c0,4.006-0.667,8.155,0.15,11.987c1.377,6.459,1.884,14.4,5.936,18.765
	c16.424,17.689,15.393,33.842-5.063,53.176c5.322,2.626,10.445,4.783,15.183,7.592c5.105,3.026,10.649,5.92,14.593,10.177
	c10.044,10.839,7.359,25.394-5.525,34.043c-0.098-0.254-0.336-0.551-0.274-0.757c5.35-17.787-2.086-26.952-21.219-26.111
	c-4.077,0.179-8.162,0.703-12.225,0.561c-8.642-0.302-16.042-3.528-20.705-11.08c-2.449-3.965-4.933-4.457-9.387-3.507
	c-14.386,3.069-28.066,0.839-40.858-6.821c-13.232-7.924-18.798-19.561-16.323-34.484c1.846-11.13,2.632-21.291-6.122-30.38
	C177.147,180.724,176.825,175.641,175.313,171.308z"></path>
<path d="M308.766,332.049c-4.251-1.396-7.448-2.446-10.645-3.495c0.016-0.464,0.032-0.929,0.049-1.393
	c3.922-0.549,7.944-0.719,11.749-1.715c14.449-3.781,28.885-7.634,43.214-11.838c11.803-3.463,23.277-4.784,35.323,2.255
	c-10.662,12.578-23.488,21.017-37.709,27.28c-39.552,17.42-81.097,21.435-123.239,14.473c-24.58-4.061-48.591-11.705-72.748-18.151
	c-39.966-10.664-79.797-14.55-120.555,1.985c6.119-7.092,17.391-12.424,30.669-15.52c30.454-7.099,60.281-3.305,89.295,6.523
	c17.308,5.863,33.712,6.844,49.381-2.879c6.484-4.023,11.428-10.482,17.273-15.604c2.194-1.922,4.896-4.429,7.47-4.555
	c12.237-0.599,24.514-0.311,36.766-0.678c4.727-0.142,7.054,1.083,8.75,6.043C279.121,330.313,293.971,337.649,308.766,332.049z"></path>
<path d="M290.527,57.172c-58.095,18.496-96.011,56.151-122.791,107.753c-2.597-1.709-5.381-3.226-7.807-5.186
	c-18.602-15.033-22.444-44.997-7.476-63.558c23.317-28.913,53.021-48.087,89.706-55.332c12.524-2.474,25.087-1.129,36.237,5.904
	C282.36,49.252,285.608,52.884,290.527,57.172z"></path>
<path d="M197.45,462.23c5.219-5.594,9.709-10.986,14.874-15.628c1.789-1.608,5.302-2.031,7.943-1.839
	c18.094,1.314,36.078,5.78,54.353,1.358c1.464-0.354,3.856,0.488,4.929,1.618c4.452,4.685,8.563,9.693,13.425,15.304
	c-1.076,0.831-3.02,3.19-5.501,4.121c-28.275,10.604-56.503,8.638-84.561-0.973C200.781,465.461,199.089,463.452,197.45,462.23z"></path>
<path d="M241.066,88.835c-0.71,0.825-0.56,0.615-0.376,0.442c11.378-10.701,23.16-9.958,35.05-1.029
	c8.017,6.021,15.911,12.211,23.744,18.471c6.852,5.476,6.72,12.294,3.698,19.531c-7.883-9.515-15.65-18.889-23.416-28.262
	c-0.431,0.379-0.863,0.758-1.294,1.137c5.72,10.22,11.087,20.659,17.254,30.602c7.115,11.47,2.061,19.887-6.725,29.539
	c-2.054-15.937-7.311-29.553-17.148-40.484C262.321,108.187,251.431,98.813,241.066,88.835z"></path>
<path d="M248.456,30.97c-23.357,3.684-46.957,7.405-70.112,11.057c2.186-11.766,16.457-24.733,30.624-26.716
	C226.615,12.842,242.704,19.453,248.456,30.97z"></path>
<path d="M189.777,462.837c6.859,4.147,11.441,8.141,16.765,9.927c24.883,8.348,50.255,9.095,75.487,1.899
	c6.513-1.857,12.224-6.527,18.304-9.905c-0.032-0.923-0.064-1.846-0.097-2.769c2.693,2.381,5.386,4.761,8.079,7.142
	c-2.726,2.704-5.006,6.81-8.262,7.844c-9.255,2.941-18.807,5.623-28.426,6.611c-22.229,2.283-44.551,2.692-66.559-2.413
	c-4.728-1.097-9.506-2.52-13.819-4.677c-2.935-1.468-7.249-4.651-7.079-6.754C184.398,466.927,188.367,464.415,189.777,462.837z"></path>
<path d="M306.337,100.03c-13.727-8.808-26.603-17.071-40.179-25.783c7.216-2.593,14.715-5.758,22.507-7.813
	c2.47-0.652,6.565,0.825,8.47,2.755C305.683,77.848,307.724,88.608,306.337,100.03z"></path>
<path d="M226.447,303.195c3.256-5.317,5.85-10.017,8.884-14.415c7.311-10.598,16.795-10.471,24.015,0.243
	c2.85,4.229,5.453,8.625,8.939,14.172C254.158,303.195,240.581,303.195,226.447,303.195z"></path>
<path d="M196.692,47.009c-16.044,12.838-32.683,26.152-48.028,38.431C149.786,66.501,171.981,48.283,196.692,47.009z"></path>
<path d="M201.53,128.763c4.31-5.588,9.035-11.714,14.456-18.742c4.212,4.704,7.739,8.643,11.123,12.422
	C218.699,124.521,210.329,126.589,201.53,128.763z"></path>
<path d="M269.706,125.356c-8.441-1.496-15.069-2.67-22.057-3.909c1.942-3.012,4.391-6.808,7.843-12.161
	C260.407,114.842,264.71,119.707,269.706,125.356z"></path>
<path d="M205.894,142.751c7.519,0,15.039,0,22.558,0c0.001,0.725,0.002,1.451,0.003,2.176c-0.952-0.115-1.911-0.186-2.853-0.355
	c-1.305-0.235-2.596-0.543-3.9-0.822c-1.672,10.12-1.672,10.12-16.29,1.623C205.574,144.499,205.734,143.625,205.894,142.751z"></path>
<path d="M261.901,143.857c-2.338,2.991-3.809,6.604-5.785,6.905c-1.892,0.288-4.157-3.147-6.539-4.42
	c-2.027-1.083-4.454-1.419-6.661-2.073c7.346-6.039,15.267-5.594,24.136-0.477c-1.166,0.308-1.863,0.677-2.53,0.626
	C263.466,144.339,262.431,143.979,261.901,143.857z"></path>
</svg></svg></g></g><defs><clipPath id="SvgjsClipPath1057"><rect width="1000" height="1000" x="0" y="0" rx="350" ry="350"></rect></clipPath></defs></svg></g><g id="dark-icon"><svg xmlns="http://www.w3.org/2000/svg" version="1.1" xmlns:xlink="http://www.w3.org/1999/xlink" xmlns:svgjs="http://svgjs.dev/svgjs" width="1000" height="1000"><g><g transform="matrix(2,0,0,2,0,0)" style="filter: invert(100%)"><svg xmlns="http://www.w3.org/2000/svg" version="1.1" xmlns:xlink="http://www.w3.org/1999/xlink" xmlns:svgjs="http://svgjs.dev/svgjs" width="500" height="500"><svg version="1.1" id="Layer_1" xmlns="http://www.w3.org/2000/svg" xmlns:xlink="http://www.w3.org/1999/xlink" x="0px" y="0px" viewBox="0 0 500 500" enable-background="new 0 0 500 500" xml:space="preserve">
<path d="M406.812,379.988c3.895,10.653,1.352,17.841-6.421,20.605c-6.276,2.232-10.537-1.113-15.29-13.376
	c-9.892,5.996-19.986,11.148-29.009,17.762c-28.057,20.568-58.963,33.435-93.593,37.669c-37.263,4.555-69.923-6.315-99.442-28.41
	c-5.885-4.405-11.854-8.801-17.16-13.857c-26.272-25.037-57.475-37.68-93.702-38.279c-3.491-0.058-7.177-0.496-10.378-1.758
	c-2.229-0.878-4.959-3.281-5.288-5.349c-0.293-1.842,1.955-4.771,3.856-6.168c12.509-9.195,27.409-9.934,42.046-10.864
	c27.365-1.739,53.67,4.433,79.46,12.542c35.056,11.022,70.434,19.335,107.527,16.472c37.448-2.89,73.187-11.661,104.511-33.431
	c12.689-8.819,23.966-19.681,36.731-28.373c7.275-4.954,15.993-8.302,24.524-10.787c15.994-4.659,26.655,2.373,29.689,18.811
	c3.782,20.495-4.27,36.466-20.624,48.092c-7.899,5.615-17.134,9.374-25.856,13.794C414.808,376.899,410.981,378.241,406.812,379.988
	z M385.49,370.506c0.461,0.755,0.921,1.509,1.382,2.264c15.755-7.169,31.78-13.81,47.168-21.697
	c9.76-5.002,16.147-13.736,18.683-24.693c2.893-12.501-5.3-20.302-17.862-17.066c-11.837,3.05-19.906,11.138-26.03,21.057
	C400.702,343.534,393.239,357.108,385.49,370.506z"></path>
<path d="M175.313,171.308c4.209,2.474,7.758,4.561,11.308,6.648c0.687-0.599,1.374-1.198,2.061-1.797
	c-0.941-4.1-1.706-8.25-2.872-12.285c-1.192-4.125-2.777-8.137-4.189-12.198c0.613-0.315,1.226-0.631,1.839-0.946
	c8.019,14.873,16.039,29.747,25.439,47.181c6.277-17.419,18.106-18.696,31.161-17.119c0.326,0.799,0.651,1.598,0.976,2.397
	c-3.579,1.246-7.071,3.026-10.754,3.623c-6.828,1.106-9.168,4.75-8.321,11.363c0.482,3.763,0.267,7.616,0.359,11.428
	c0.104,4.333-0.623,9.265,5.458,10.212c5.597,0.871,11.139,0.654,14.218-5.232c1.723-3.294,2.877-6.886,4.228-10.198
	c2.706,3.054,4.839,7.258,8.176,8.728c3.431,1.511,8.523,1.428,11.913-0.108c1.581-0.717,1.729-6.694,1.03-9.967
	c-2.423-11.339-8.152-19.943-24.067-19.673c13.674-7.805,22.301-5.934,28.464,4.83c3.175-9.897,6.041-18.828,8.906-27.758
	c0.345-0.025,0.691-0.051,1.036-0.076c0,4.006-0.667,8.155,0.15,11.987c1.377,6.459,1.884,14.4,5.936,18.765
	c16.424,17.689,15.393,33.842-5.063,53.176c5.322,2.626,10.445,4.783,15.183,7.592c5.105,3.026,10.649,5.92,14.593,10.177
	c10.044,10.839,7.359,25.394-5.525,34.043c-0.098-0.254-0.336-0.551-0.274-0.757c5.35-17.787-2.086-26.952-21.219-26.111
	c-4.077,0.179-8.162,0.703-12.225,0.561c-8.642-0.302-16.042-3.528-20.705-11.08c-2.449-3.965-4.933-4.457-9.387-3.507
	c-14.386,3.069-28.066,0.839-40.858-6.821c-13.232-7.924-18.798-19.561-16.323-34.484c1.846-11.13,2.632-21.291-6.122-30.38
	C177.147,180.724,176.825,175.641,175.313,171.308z"></path>
<path d="M308.766,332.049c-4.251-1.396-7.448-2.446-10.645-3.495c0.016-0.464,0.032-0.929,0.049-1.393
	c3.922-0.549,7.944-0.719,11.749-1.715c14.449-3.781,28.885-7.634,43.214-11.838c11.803-3.463,23.277-4.784,35.323,2.255
	c-10.662,12.578-23.488,21.017-37.709,27.28c-39.552,17.42-81.097,21.435-123.239,14.473c-24.58-4.061-48.591-11.705-72.748-18.151
	c-39.966-10.664-79.797-14.55-120.555,1.985c6.119-7.092,17.391-12.424,30.669-15.52c30.454-7.099,60.281-3.305,89.295,6.523
	c17.308,5.863,33.712,6.844,49.381-2.879c6.484-4.023,11.428-10.482,17.273-15.604c2.194-1.922,4.896-4.429,7.47-4.555
	c12.237-0.599,24.514-0.311,36.766-0.678c4.727-0.142,7.054,1.083,8.75,6.043C279.121,330.313,293.971,337.649,308.766,332.049z"></path>
<path d="M290.527,57.172c-58.095,18.496-96.011,56.151-122.791,107.753c-2.597-1.709-5.381-3.226-7.807-5.186
	c-18.602-15.033-22.444-44.997-7.476-63.558c23.317-28.913,53.021-48.087,89.706-55.332c12.524-2.474,25.087-1.129,36.237,5.904
	C282.36,49.252,285.608,52.884,290.527,57.172z"></path>
<path d="M197.45,462.23c5.219-5.594,9.709-10.986,14.874-15.628c1.789-1.608,5.302-2.031,7.943-1.839
	c18.094,1.314,36.078,5.78,54.353,1.358c1.464-0.354,3.856,0.488,4.929,1.618c4.452,4.685,8.563,9.693,13.425,15.304
	c-1.076,0.831-3.02,3.19-5.501,4.121c-28.275,10.604-56.503,8.638-84.561-0.973C200.781,465.461,199.089,463.452,197.45,462.23z"></path>
<path d="M241.066,88.835c-0.71,0.825-0.56,0.615-0.376,0.442c11.378-10.701,23.16-9.958,35.05-1.029
	c8.017,6.021,15.911,12.211,23.744,18.471c6.852,5.476,6.72,12.294,3.698,19.531c-7.883-9.515-15.65-18.889-23.416-28.262
	c-0.431,0.379-0.863,0.758-1.294,1.137c5.72,10.22,11.087,20.659,17.254,30.602c7.115,11.47,2.061,19.887-6.725,29.539
	c-2.054-15.937-7.311-29.553-17.148-40.484C262.321,108.187,251.431,98.813,241.066,88.835z"></path>
<path d="M248.456,30.97c-23.357,3.684-46.957,7.405-70.112,11.057c2.186-11.766,16.457-24.733,30.624-26.716
	C226.615,12.842,242.704,19.453,248.456,30.97z"></path>
<path d="M189.777,462.837c6.859,4.147,11.441,8.141,16.765,9.927c24.883,8.348,50.255,9.095,75.487,1.899
	c6.513-1.857,12.224-6.527,18.304-9.905c-0.032-0.923-0.064-1.846-0.097-2.769c2.693,2.381,5.386,4.761,8.079,7.142
	c-2.726,2.704-5.006,6.81-8.262,7.844c-9.255,2.941-18.807,5.623-28.426,6.611c-22.229,2.283-44.551,2.692-66.559-2.413
	c-4.728-1.097-9.506-2.52-13.819-4.677c-2.935-1.468-7.249-4.651-7.079-6.754C184.398,466.927,188.367,464.415,189.777,462.837z"></path>
<path d="M306.337,100.03c-13.727-8.808-26.603-17.071-40.179-25.783c7.216-2.593,14.715-5.758,22.507-7.813
	c2.47-0.652,6.565,0.825,8.47,2.755C305.683,77.848,307.724,88.608,306.337,100.03z"></path>
<path d="M226.447,303.195c3.256-5.317,5.85-10.017,8.884-14.415c7.311-10.598,16.795-10.471,24.015,0.243
	c2.85,4.229,5.453,8.625,8.939,14.172C254.158,303.195,240.581,303.195,226.447,303.195z"></path>
<path d="M196.692,47.009c-16.044,12.838-32.683,26.152-48.028,38.431C149.786,66.501,171.981,48.283,196.692,47.009z"></path>
<path d="M201.53,128.763c4.31-5.588,9.035-11.714,14.456-18.742c4.212,4.704,7.739,8.643,11.123,12.422
	C218.699,124.521,210.329,126.589,201.53,128.763z"></path>
<path d="M269.706,125.356c-8.441-1.496-15.069-2.67-22.057-3.909c1.942-3.012,4.391-6.808,7.843-12.161
	C260.407,114.842,264.71,119.707,269.706,125.356z"></path>
<path d="M205.894,142.751c7.519,0,15.039,0,22.558,0c0.001,0.725,0.002,1.451,0.003,2.176c-0.952-0.115-1.911-0.186-2.853-0.355
	c-1.305-0.235-2.596-0.543-3.9-0.822c-1.672,10.12-1.672,10.12-16.29,1.623C205.574,144.499,205.734,143.625,205.894,142.751z"></path>
<path d="M261.901,143.857c-2.338,2.991-3.809,6.604-5.785,6.905c-1.892,0.288-4.157-3.147-6.539-4.42
	c-2.027-1.083-4.454-1.419-6.661-2.073c7.346-6.039,15.267-5.594,24.136-0.477c-1.166,0.308-1.863,0.677-2.53,0.626
	C263.466,144.339,262.431,143.979,261.901,143.857z"></path>
</svg></svg></g></g></svg></g></svg>